<?xml version="1.0" encoding="UTF-8"?>
<svg version="1.1" xmlns="http://www.w3.org/2000/svg" width="1418" height="280">
<path d="M0 0 C467.94 0 935.88 0 1418 0 C1418 92.4 1418 184.8 1418 280 C950.06 280 482.12 280 0 280 C0 187.6 0 95.2 0 0 Z " fill="#FEFEFE" transform="translate(0,0)"/>
<path d="M0 0 C73.35639413 0 73.35639413 0 89 14 C89.57363281 14.41894531 90.14726563 14.83789062 90.73828125 15.26953125 C102.57147951 23.92274858 108.8485879 40.93391848 111.53710938 54.76269531 C112.30533957 60.13544449 112.22485574 65.50853591 112.24023438 70.92822266 C112.24984399 72.96690213 112.2808733 75.00452924 112.3125 77.04296875 C112.47863713 97.56012612 106.57866289 117.19468543 92.25 132.25 C66.45022668 156.73068717 34.91341287 150 0 150 C0 100.5 0 51 0 0 Z " fill="#193E69" transform="translate(614,78)"/>
<path d="M0 0 C72.62889755 0 72.62889755 0 87.32421875 14.12890625 C95.8461076 23.64402224 98.53230338 33.44578575 98.3125 46.0625 C98.31572266 46.99126953 98.31894531 47.92003906 98.32226562 48.87695312 C98.21789138 62.39816188 94.06859068 72.19000512 84.9375 82.23828125 C81.53819287 85.3291835 76.76064734 89 72 89 C74.95664687 94.77169885 77.91524265 100.54239564 80.875 106.3125 C81.30940399 107.1595752 81.74380798 108.00665039 82.19137573 108.87939453 C87.47524465 119.17990221 92.76099741 129.47801198 98.23193359 139.6809082 C100.04922715 143.08928144 101.55850841 146.39627102 103 150 C92.77 150 82.54 150 72 150 C57.59514399 120.15076228 57.59514399 120.15076228 52 108 C51.49597656 106.92105469 50.99195313 105.84210938 50.47265625 104.73046875 C50.00730469 103.72628906 49.54195313 102.72210938 49.0625 101.6875 C48.66160156 100.82511719 48.26070313 99.96273437 47.84765625 99.07421875 C47 97 47 97 47 95 C40.4 95 33.8 95 27 95 C27 113.15 27 131.3 27 150 C18.09 150 9.18 150 0 150 C0 100.5 0 51 0 0 Z " fill="#183D69" transform="translate(357,78)"/>
<path d="M0 0 C71.29023437 0 71.29023437 0 86.375 13.6875 C94.44913982 22.33355806 98.40787771 33.69629303 98.1875 45.375 C98.17525391 46.13031006 98.16300781 46.88562012 98.15039062 47.66381836 C98.12109787 49.13880387 98.08605386 50.61368976 98.04443359 52.08837891 C98.00992882 53.57284274 98.02113548 55.05839993 98.05078125 56.54296875 C97.80068662 66.48903999 90.60261541 78.42415198 83.84765625 85.39453125 C67.22747447 99.83616912 49.1920496 99 28 99 C28 115.83 28 132.66 28 150 C18.76 150 9.52 150 0 150 C0 100.5 0 51 0 0 Z " fill="#1B406B" transform="translate(852,78)"/>
<path d="M0 0 C10.23 0 20.46 0 31 0 C32.50240234 4.61548828 32.50240234 4.61548828 34.03515625 9.32421875 C35.03132091 12.38278759 36.0277344 15.44127526 37.02416992 18.49975586 C37.70411602 20.58723675 38.38381304 22.67479879 39.06323242 24.76245117 C42.88959921 36.51911182 46.72879152 48.27036636 50.68409729 59.98442078 C52.45876244 65.26816754 54.09163595 70.57892628 55.625 75.9375 C57.42458166 82.20013782 59.5025635 88.30347156 61.75146484 94.42260742 C62.88872234 97.68115927 63.85428295 100.92545111 64.76171875 104.25390625 C67.28171463 113.19004927 70.26996975 121.9587336 73.25 130.75 C74.34198442 133.97280916 75.42997314 137.19692797 76.515625 140.421875 C76.76556213 141.15508972 77.01549927 141.88830444 77.27301025 142.64373779 C79 147.77452074 79 147.77452074 79 150 C69.1 150 59.2 150 49 150 C45.62570806 141.00188816 45.62570806 141.00188816 44.68359375 137.52734375 C44.47669922 136.77259766 44.26980469 136.01785156 44.05664062 135.24023438 C43.85232422 134.48033203 43.64800781 133.72042969 43.4375 132.9375 C43.01975013 131.40488824 42.60178435 129.87233531 42.18359375 128.33984375 C41.91373657 127.34005493 41.91373657 127.34005493 41.63842773 126.32006836 C40.78178661 123.20700504 39.8870131 120.10454586 39 117 C22.83 117 6.66 117 -10 117 C-10.66 119.97 -11.32 122.94 -12 126 C-12.55261893 128.04928228 -13.12586197 130.0931989 -13.7265625 132.12890625 C-14.14542725 133.55698608 -14.14542725 133.55698608 -14.57275391 135.01391602 C-14.91999512 136.18494873 -15.26723633 137.35598145 -15.625 138.5625 C-16.73875 142.336875 -17.8525 146.11125 -19 150 C-28.57 150 -38.14 150 -48 150 C-46.8758413 142.13088907 -46.8758413 142.13088907 -45.80517578 139.06005859 C-45.56934784 138.37070221 -45.3335199 137.68134583 -45.09054565 136.97109985 C-44.83636871 136.24587128 -44.58219177 135.5206427 -44.3203125 134.7734375 C-43.77243059 133.17070226 -43.22592613 131.56749561 -42.68066406 129.96386719 C-42.40081665 129.14301636 -42.12096924 128.32216553 -41.8326416 127.47644043 C-40.50026862 123.51370026 -39.24398063 119.52785785 -37.9921875 115.5390625 C-37.74139435 114.7419133 -37.4906012 113.9447641 -37.23220825 113.12345886 C-36.71388238 111.47545971 -36.19587136 109.82736151 -35.67816162 108.1791687 C-26.66110387 79.50363682 -17.09688115 51.02286128 -7.27734375 22.61328125 C-4.68698934 15.1036783 -2.18303155 7.64061042 0 0 Z " fill="#193F6A" transform="translate(521,78)"/>
<path d="M0 0 C8.91 0 17.82 0 27 0 C27.00410889 3.05209717 27.00821777 6.10419434 27.01245117 9.2487793 C27.02970451 19.3710008 27.07429942 29.49297176 27.13209057 39.61503887 C27.16627518 45.74772144 27.19145732 51.88015713 27.19555664 58.01293945 C27.1998578 63.93948603 27.22847157 69.8654765 27.27343178 75.79184914 C27.28634871 78.04464279 27.29073523 80.29750318 27.28615379 82.55032921 C26.82037892 102.12979778 26.82037892 102.12979778 35.5 119.125 C43.14980626 124.8623547 49.49923831 125.85936538 59 125 C65.5161684 123.20512727 70.61685974 119.97459325 74.15234375 114.078125 C77.85331546 107.07130312 78.15776466 100.78710189 78.20532227 92.97729492 C78.21522186 91.97194702 78.22512146 90.96659912 78.23532104 89.93078613 C78.26686065 86.61403747 78.29166371 83.2972745 78.31640625 79.98046875 C78.33698228 77.67832572 78.35797893 75.37618642 78.37937927 73.0740509 C78.43453285 67.01932798 78.48397176 60.96457135 78.53222656 54.90979004 C78.5824906 48.7295431 78.63815107 42.54934503 78.69335938 36.36914062 C78.80085886 24.24613398 78.9018233 12.12308574 79 0 C87.58 0 96.16 0 105 0 C105.04525255 13.77835772 105.08191727 27.55666577 105.10362434 41.3350811 C105.11404462 47.73350672 105.12817179 54.13187869 105.15087891 60.53027344 C105.17266983 66.70943858 105.18458183 72.88855223 105.18975449 79.06775284 C105.19343902 81.42075536 105.20063393 83.77375519 105.21146011 86.12673569 C105.22605797 89.43204505 105.22797446 92.73714386 105.22705078 96.04248047 C105.23424133 97.00705673 105.24143188 97.971633 105.24884033 98.96543884 C105.20662766 112.99975932 101.2242065 127.13368202 92 138 C80.39010038 149.46451626 67.59239383 152.18547365 51.875 152.3125 C50.70195313 152.34150391 49.52890625 152.37050781 48.3203125 152.40039062 C35.93442841 152.48984423 25.7126753 148.74070789 16 141 C-0.23647843 124.05521882 -0.59571543 105.00529087 -0.390625 82.8125 C-0.38314869 80.41398596 -0.37746235 78.01546574 -0.37347412 75.61694336 C-0.35832725 69.35667544 -0.31914148 63.09678893 -0.2746582 56.83666992 C-0.23346739 50.42762407 -0.21541261 44.01851556 -0.1953125 37.609375 C-0.15263516 25.07272361 -0.08237661 12.53645344 0 0 Z " fill="#183D69" transform="translate(970,78)"/>
<path d="M0 0 C1.22231455 1.04389391 2.40946516 2.13005446 3.5625 3.25 C4.25988281 3.9203125 4.95726562 4.590625 5.67578125 5.28125 C10.66329213 10.46023753 13.34844224 15.45633856 15.5625 22.25 C15.975 23.28125 16.3875 24.3125 16.8125 25.375 C17.5625 28.25 17.5625 28.25 17.5625 36.25 C5.1875 36.745 5.1875 36.745 -7.4375 37.25 C-8.4275 33.95 -9.4175 30.65 -10.4375 27.25 C-13.81418158 21.49713508 -19.32101854 19.28882715 -25.4375 17.25 C-32.83838932 16.58117889 -39.35990027 16.60414252 -45.4375 21.25 C-49.21758107 25.03008107 -49.71651132 28.14576902 -49.875 33.3125 C-49.86908774 37.90632843 -49.30179686 40.61432815 -46.4375 44.25 C-41.23351416 49.03104162 -35.69310271 51.68322863 -29.0625 53.9375 C-28.22251465 54.2365625 -27.3825293 54.535625 -26.51708984 54.84375 C-22.39877898 56.29454583 -18.28128464 57.61897715 -14.0625 58.75 C-2.856523 61.99075293 8.94852643 68.90813444 15.25390625 78.94140625 C21.09798424 90.37981531 21.46761498 104.08942148 17.9375 116.4375 C13.3772301 128.86304378 5.06206375 137.45021328 -6.78515625 143.2421875 C-14.44310919 146.15198405 -21.30955789 146.56035601 -29.4375 146.5 C-30.4790625 146.50773438 -31.520625 146.51546875 -32.59375 146.5234375 C-44.50310426 146.49336337 -55.09867956 143.2708339 -64.75 136 C-74.37090467 126.15535336 -78.34270519 115.75798192 -79.4375 102.25 C-76.04371069 101.71522379 -72.64726949 101.19966242 -69.25 100.6875 C-68.29029297 100.53603516 -67.33058594 100.38457031 -66.34179688 100.22851562 C-65.41044922 100.08994141 -64.47910156 99.95136719 -63.51953125 99.80859375 C-62.23912964 99.61221313 -62.23912964 99.61221313 -60.93286133 99.41186523 C-58.19905782 99.2345331 -56.06045356 99.46166667 -53.4375 100.25 C-52.25 102.54296875 -52.25 102.54296875 -51.4375 105.4375 C-49.23135063 112.16930757 -46.89824798 116.2115518 -40.4375 119.625 C-33.0564665 122.55280995 -24.73560719 122.53342053 -17.375 119.5625 C-12.41059599 116.98937484 -9.62738893 113.33202072 -7.4375 108.25 C-6.73672183 103.31195847 -6.88191599 99.36116802 -9.125 94.875 C-15.98515704 87.08779471 -25.17584075 84.27376805 -35 81.75 C-49.22778763 78.04829362 -64.95024531 71.05596532 -72.81640625 57.953125 C-73.84764156 55.74605312 -74.68008525 53.56409037 -75.4375 51.25 C-75.85 50.05375 -76.2625 48.8575 -76.6875 47.625 C-79.47358177 34.88500792 -77.57464503 21.55843967 -70.75 10.4375 C-55.203256 -10.69211466 -21.53354497 -14.85358208 0 0 Z " fill="#193E6A" transform="translate(1274.4375,83.75)"/>
<path d="M0 0 C27.39 0 54.78 0 83 0 C83 8.58 83 17.16 83 26 C64.52 26 46.04 26 27 26 C27 38.21 27 50.42 27 63 C43.83 63 60.66 63 78 63 C78 71.58 78 80.16 78 89 C61.17 89 44.34 89 27 89 C27 100.55 27 112.1 27 124 C45.81 124 64.62 124 84 124 C84 132.58 84 141.16 84 150 C56.28 150 28.56 150 0 150 C0 100.5 0 51 0 0 Z " fill="#1A3F6A" transform="translate(745,78)"/>
<path d="M0 0 C27.39 0 54.78 0 83 0 C83 8.58 83 17.16 83 26 C64.52 26 46.04 26 27 26 C27 38.21 27 50.42 27 63 C43.83 63 60.66 63 78 63 C78 71.25 78 79.5 78 88 C61.17 88 44.34 88 27 88 C27 99.88 27 111.76 27 124 C45.81 124 64.62 124 84 124 C84 132.58 84 141.16 84 150 C56.28 150 28.56 150 0 150 C0 100.5 0 51 0 0 Z " fill="#193E69" transform="translate(1314,78)"/>
<path d="M0 0 C0.33 0 0.66 0 1 0 C1 54.78 1 109.56 1 166 C-13.52 166 -28.04 166 -43 166 C-43.22607885 150.24856474 -43.41013785 134.49842278 -43.51812172 118.7458353 C-43.56960217 111.43095725 -43.63973358 104.11716158 -43.75439453 96.80297852 C-43.85433236 90.42491708 -43.91864307 84.04763966 -43.94088495 77.66881698 C-43.95388025 74.2933811 -43.98422324 70.92018725 -44.05730057 67.5454731 C-44.13009675 63.76928903 -44.13988358 59.99772205 -44.13525391 56.22094727 C-44.17120667 55.11251465 -44.20715942 54.00408203 -44.24420166 52.86206055 C-44.18067628 48.06114709 -43.94004778 45.14496705 -40.83146286 41.35874748 C-38.31231821 39.07098862 -35.73818357 37.017304 -33 35 C-31.72114225 33.92615116 -30.44817446 32.84513852 -29.1875 31.75 C-28.68605469 31.33234375 -28.18460938 30.9146875 -27.66796875 30.484375 C-18.16533471 22.02769834 -9.90742989 12.05645949 -1.8984375 2.203125 C-1.27195313 1.47609375 -0.64546875 0.7490625 0 0 Z " fill="#2176C0" transform="translate(162,85)"/>
<path d="M0 0 C35.31 0 70.62 0 107 0 C107 8.58 107 17.16 107 26 C93.8 26 80.6 26 67 26 C67 66.92 67 107.84 67 150 C58.09 150 49.18 150 40 150 C40 109.08 40 68.16 40 26 C26.8 26 13.6 26 0 26 C0 17.42 0 8.84 0 0 Z " fill="#183D69" transform="translate(233,78)"/>
<path d="M0 0 C9.24 0 18.48 0 28 0 C28 40.92 28 81.84 28 124 C45.82 124 63.64 124 82 124 C82 132.58 82 141.16 82 150 C54.94 150 27.88 150 0 150 C0 100.5 0 51 0 0 Z " fill="#1C406B" transform="translate(1101,78)"/>
<path d="M0 0 C0.14125876 10.24387626 -0.23285729 20.40750766 -0.79956055 30.63232422 C-0.93768653 33.12837082 -1.06987174 35.62467968 -1.20117188 38.12109375 C-1.6631123 46.76088853 -2.20310729 55.38326243 -3 64 C-7.95532767 60.13242719 -11.96476648 55.81123996 -16 51 C-19.47615462 52.15871821 -20.05623963 53.05700796 -22.1875 55.9375 C-22.80496094 56.75476563 -23.42242187 57.57203125 -24.05859375 58.4140625 C-24.69925781 59.26742187 -25.33992187 60.12078125 -26 61 C-31.50850089 68.15056986 -37.4161915 74.84743507 -43.56347656 81.44580078 C-45.0119937 83.01297619 -46.44186769 84.59531075 -47.8671875 86.18359375 C-52.3266461 91.14179242 -56.79453211 95.93633203 -61.9140625 100.23046875 C-64.46767969 102.39673951 -66.91429605 104.66634608 -69.375 106.9375 C-93.79901892 129.12903697 -122.44315065 147.26011269 -153.18017578 159.28173828 C-155.59391581 160.2344111 -157.98141815 161.24794757 -160.375 162.25 C-166.69769612 164.76175599 -173.16325471 167 -180 167 C-180 164.03 -180 161.06 -180 158 C-179.37246826 157.69932617 -178.74493652 157.39865234 -178.09838867 157.08886719 C-151.8666942 144.44489896 -127.89602602 129.2485691 -106 110 C-105.28972656 109.38898438 -104.57945313 108.77796875 -103.84765625 108.1484375 C-93.40236983 99.13430485 -83.05442465 89.87031892 -74.0546875 79.390625 C-72.5124947 77.59628661 -70.95208625 75.81757791 -69.3828125 74.046875 C-61.56863511 65.17386598 -54.50294663 55.84005237 -47.61132812 46.23730469 C-46.11510461 44.159821 -44.59953829 42.09812599 -43.078125 40.0390625 C-42.23852386 38.8809757 -41.3999037 37.72217674 -40.5625 36.5625 C-39.48162109 35.07943359 -39.48162109 35.07943359 -38.37890625 33.56640625 C-36.83207282 31.18327713 -36.83207282 31.18327713 -37.0234375 28.94140625 C-38.33390744 26.33619201 -40.05840048 24.4886711 -42.0625 22.375 C-46 18.20913884 -46 18.20913884 -46 16 C-41.66354364 14.36130355 -37.3259321 12.72571314 -32.98730469 11.09277344 C-31.51694509 10.53890162 -30.04688354 9.98423778 -28.57714844 9.42871094 C-3.62680505 -0 -3.62680505 -0 0 0 Z " fill="#17406E" transform="translate(180,11)"/>
<path d="M0 0 C35.64285714 0 35.64285714 0 46 10 C58.76215146 25.12551284 58.2282684 44.77138292 56.81396484 63.45800781 C55.62149622 73.65349307 51.14039267 82.48387309 43.5625 89.4375 C30.35958747 99.66386305 17.0216548 98 0 98 C0 65.66 0 33.32 0 0 Z " fill="#FCFCFD" transform="translate(641,104)"/>
<path d="M0 0 C0.66 0 1.32 0 2 0 C2 35.97 2 71.94 2 109 C-12.52 109 -27.04 109 -42 109 C-42 82.27 -42 55.54 -42 28 C-36.06 24.7 -30.12 21.4 -24 18 C-20.80914473 15.91665603 -17.73844927 13.87696458 -14.6875 11.625 C-13.99978516 11.13128906 -13.31207031 10.63757813 -12.60351562 10.12890625 C-9.7103766 8.04049983 -6.90018098 5.9177961 -4.14453125 3.6484375 C-2 2 -2 2 0 2 C0 1.34 0 0.68 0 0 Z " fill="#2687D2" transform="translate(102,142)"/>
<path d="M0 0 C0 23.43 0 46.86 0 71 C-14.19 71 -28.38 71 -43 71 C-43 52.19 -43 33.38 -43 14 C-39.37 13.01 -35.74 12.02 -32 11 C-29.00741986 10.06784312 -26.03261959 9.12192131 -23.0625 8.125 C-21.91297852 7.74190674 -21.91297852 7.74190674 -20.74023438 7.35107422 C-15.1018029 5.44284563 -9.63428285 3.28847493 -4.1875 0.8828125 C-2 0 -2 0 0 0 Z " fill="#278DD9" transform="translate(43,180)"/>
<path d="M0 0 C3.91875 -0.0825 7.8375 -0.165 11.875 -0.25 C13.69620361 -0.30462402 13.69620361 -0.30462402 15.55419922 -0.36035156 C23.41066333 -0.43961939 30.82471615 0.37793609 36.96972656 5.70874023 C40.32840532 9.2223795 41.81390309 12.06843197 42 17 C42.06058594 17.91136719 42.12117187 18.82273437 42.18359375 19.76171875 C42.45869548 26.40584243 42.12646287 31.61033421 38 37 C34.03536424 41.12101351 29.93892217 44.77246107 24.06738281 45.22705078 C22.95717773 45.21657715 21.84697266 45.20610352 20.703125 45.1953125 C19.61676758 45.19031738 18.53041016 45.18532227 17.41113281 45.18017578 C16.03795898 45.16196777 14.66478516 45.14375977 13.25 45.125 C6.69125 45.063125 6.69125 45.063125 0 45 C0 30.15 0 15.3 0 0 Z " fill="#FCFDFD" transform="translate(880,104)"/>
<path d="M0 0 C4.269375 -0.0825 8.53875 -0.165 12.9375 -0.25 C14.26515381 -0.28641602 15.59280762 -0.32283203 16.96069336 -0.36035156 C25.73614841 -0.44198983 32.03999981 0.7286955 38.875 6.375 C43.56350509 12.16668275 44.56256223 16.66457175 44.34375 24.03125 C43.53376484 31.02657636 40.23923551 35.30889499 34.9765625 39.7734375 C30.35860212 42.63912833 25.85847243 43.24627117 20.5078125 43.1953125 C19.4264502 43.19031738 18.34508789 43.18532227 17.23095703 43.18017578 C15.87599121 43.16196777 14.52102539 43.14375977 13.125 43.125 C8.79375 43.08375 4.4625 43.0425 0 43 C0 28.81 0 14.62 0 0 Z " fill="#FCFCFD" transform="translate(384,104)"/>
<path d="M0 0 C2.67761596 2.67761596 3.00395793 5.54780113 3.8125 9.125 C5.15031629 14.76543683 6.65215161 20.29750933 8.4375 25.8125 C10.39404464 31.89233491 12.12980621 38.00943748 13.75 44.1875 C14.06602173 45.39079956 14.06602173 45.39079956 14.38842773 46.6184082 C15.37053457 50.40802896 16.23088593 54.15442967 17 58 C5.78 58 -5.44 58 -17 58 C-15.72845866 52.27806398 -14.46779421 47.02065176 -12.6875 41.5 C-10.8738906 35.80936893 -9.11729195 30.10663004 -7.4375 24.375 C-7.23181396 23.67366943 -7.02612793 22.97233887 -6.81420898 22.24975586 C-5.10448278 16.39704881 -3.44164719 10.5314537 -1.796875 4.66015625 C-1 2 -1 2 0 0 Z " fill="#F7F8F9" transform="translate(536,111)"/>
<path d="M0 0 C8.58 0 17.16 0 26 0 C26 35.31 26 70.62 26 107 C25.01 107.495 25.01 107.495 24 108 C24 73.02 24 38.04 24 2 C16.74 2 9.48 2 2 2 C2.01047363 5.03864258 2.02094727 8.07728516 2.03173828 11.20800781 C2.06485124 21.23833955 2.08695899 31.26867368 2.10362434 41.29904556 C2.11406952 47.38152198 2.12824219 53.46394248 2.15087891 59.54638672 C2.17258099 65.41429953 2.1845631 71.2821585 2.18975449 77.15010834 C2.19345497 79.39084471 2.20068091 81.63157807 2.21146011 83.87229156 C2.22593989 87.00639761 2.2279794 90.14028004 2.22705078 93.27441406 C2.23783661 94.66947929 2.23783661 94.66947929 2.24884033 96.09272766 C2.246091 96.94805588 2.24334167 97.80338409 2.24050903 98.68463135 C2.24235262 99.42575291 2.24419621 100.16687447 2.24609566 100.93045425 C2 103 2 103 0 107 C0 71.69 0 36.38 0 0 Z " fill="#2D4C75" transform="translate(1049,78)"/>
<path d="M0 0 C0 8.25 0 16.5 0 25 C-16.83 25 -33.66 25 -51 25 C-51 36.88 -51 48.76 -51 61 C-32.19 61 -13.38 61 6 61 C6 61.33 6 61.66 6 62 C-22.71 62.495 -22.71 62.495 -52 63 C-53.57667147 59.84665706 -53.16297041 56.46237759 -53.16796875 53 C-53.17129715 52.20851562 -53.17462555 51.41703125 -53.17805481 50.6015625 C-53.1831204 48.92708925 -53.18546325 47.2526059 -53.18530273 45.578125 C-53.18749127 43.01024865 -53.20565609 40.44280041 -53.22460938 37.875 C-53.22754291 36.25000147 -53.22952797 34.6250009 -53.23046875 33 C-53.23765427 32.22914063 -53.24483978 31.45828125 -53.25224304 30.6640625 C-53.2288272 25.2288272 -53.2288272 25.2288272 -51 23 C-48.89926147 22.75949097 -48.89926147 22.75949097 -46.27490234 22.77294922 C-45.29403656 22.77310028 -44.31317078 22.77325134 -43.30258179 22.77340698 C-42.24108917 22.78372955 -41.17959656 22.79405212 -40.0859375 22.8046875 C-38.45877304 22.80893234 -38.45877304 22.80893234 -36.79873657 22.81326294 C-33.32404687 22.82448422 -29.84961218 22.84959238 -26.375 22.875 C-24.02344121 22.88502728 -21.6718784 22.89415357 -19.3203125 22.90234375 C-13.5467763 22.92442993 -7.77343143 22.9589731 -2 23 C-2 16.07 -2 9.14 -2 2 C-17.84 2 -33.68 2 -50 2 C-50 1.67 -50 1.34 -50 1 C-33.31963498 0.31063781 -16.69514912 -0.11280506 0 0 Z " fill="#103463" transform="translate(1392,141)"/>
<path d="M0 0 C0.33 0 0.66 0 1 0 C1 16.83 1 33.66 1 51 C0.67 51 0.34 51 0 51 C-0.29004212 46.80518873 -0.57460192 42.61004875 -0.85449219 38.41455078 C-0.9500597 36.99290393 -1.04702109 35.57134995 -1.14550781 34.14990234 C-1.74925966 25.42014351 -2.10980112 16.75663904 -2 8 C-4.97 10.97 -7.94 13.94 -11 17 C-11.99 16.67 -12.98 16.34 -14 16 C-13.15695313 15.09636719 -12.31390625 14.19273438 -11.4453125 13.26171875 C-10.33843161 12.07041474 -9.23166684 10.87900285 -8.125 9.6875 C-7.56941406 9.09259766 -7.01382813 8.49769531 -6.44140625 7.88476562 C-5.90644531 7.30791016 -5.37148437 6.73105469 -4.8203125 6.13671875 C-4.32805176 5.60780029 -3.83579102 5.07888184 -3.32861328 4.53393555 C-1.79418204 2.82718765 -1.79418204 2.82718765 0 0 Z " fill="#177CCC" transform="translate(162,85)"/>
<path d="M0 0 C10.23 0 20.46 0 31 0 C32.010625 2.8875 33.02125 5.775 34.0625 8.75 C34.38484619 9.65331055 34.70719238 10.55662109 35.03930664 11.48730469 C35.4085022 12.56866699 35.4085022 12.56866699 35.78515625 13.671875 C36.04176025 14.4050293 36.29836426 15.13818359 36.56274414 15.89355469 C37.05680388 18.27364818 36.76066537 19.71574672 36 22 C34.3354745 19.50321175 33.55263843 17.97578432 32.7109375 15.20703125 C32.51290527 14.56483643 32.31487305 13.9226416 32.11083984 13.26098633 C31.74659912 12.0489856 31.74659912 12.0489856 31.375 10.8125 C30.59125 8.234375 29.8075 5.65625 29 3 C20.09 3 11.18 3 2 3 C1.34 4.65 0.68 6.3 0 8 C-1.08174162 4.63458162 -0.92538169 3.70152678 0 0 Z " fill="#284973" transform="translate(521,78)"/>
<path d="M0 0 C0.33 0.99 0.66 1.98 1 3 C0.5051561 3.2943544 0.01031219 3.5887088 -0.49952698 3.89198303 C-4.2882811 6.75982906 -5.82067658 8.99312885 -6.66452026 13.73117065 C-7.00029347 18.54510201 -6.94448474 23.36102828 -6.90234375 28.18359375 C-6.91173446 29.96722735 -6.92419572 31.7508472 -6.93959045 33.53443909 C-6.97175955 38.21181141 -6.96239487 42.88820132 -6.94421387 47.56561279 C-6.93304001 52.3452827 -6.96137477 57.1247032 -6.98632812 61.90429688 C-7.02942887 71.26970648 -7.02862881 80.63455408 -7 90 C-7.33 90 -7.66 90 -8 90 C-8.18558888 79.29933848 -8.327622 68.59906146 -8.41449738 57.89711666 C-8.45620007 52.92733238 -8.51273623 47.9586513 -8.60351562 42.98950195 C-8.69062053 38.19130731 -8.73831113 33.39417169 -8.75901794 28.59524727 C-8.77376825 26.76711926 -8.80257433 24.93904746 -8.84584045 23.11137199 C-9.17247099 8.73832128 -9.17247099 8.73832128 -6.16577148 4.2805481 C-4.18262273 2.52714704 -2.3576784 1.18930264 0 0 Z " fill="#2382CF" transform="translate(127,122)"/>
<path d="M0 0 C9.9 0 19.8 0 30 0 C30.33 0.99 30.66 1.98 31 3 C20.77 3 10.54 3 0 3 C0 2.01 0 1.02 0 0 Z " fill="#2D4D75" transform="translate(429,225)"/>
<path d="M0 0 C0.33 0.66 0.66 1.32 1 2 C9.25 2 17.5 2 26 2 C26 2.66 26 3.32 26 4 C17.09 4 8.18 4 -1 4 C-0.67 2.68 -0.34 1.36 0 0 Z " fill="#2B4B74" transform="translate(358,224)"/>
<path d="M0 0 C0.33 0.99 0.66 1.98 1 3 C1.66 3 2.32 3 3 3 C3.0544207 5.68777802 3.09387266 8.37443212 3.125 11.0625 C3.14175781 11.81466797 3.15851562 12.56683594 3.17578125 13.34179688 C3.21865121 18.29327709 2.58399375 22.30414451 1 27 C0.67 27 0.34 27 0 27 C0 18.09 0 9.18 0 0 Z " fill="#284972" transform="translate(947,112)"/>
<path d="M0 0 C0 5.39955435 -4.47766786 9.17112664 -8 13 C-10.88278949 15.51411225 -13.86591274 17.80904085 -17 20 C-17.66 19.67 -18.32 19.34 -19 19 C-18.48050781 18.55269531 -17.96101562 18.10539062 -17.42578125 17.64453125 C-11.09247199 12.15410233 -5.38428441 6.42043536 0 0 Z " fill="#328FD7" transform="translate(147,102)"/>
<path d="M0 0 C0.33 0.99 0.66 1.98 1 3 C-1.97639612 8.56456667 -6.47345607 12.67121769 -11 17 C-11.99 16.67 -12.98 16.34 -14 16 C-13.15695313 15.09636719 -12.31390625 14.19273438 -11.4453125 13.26171875 C-10.33843161 12.07041474 -9.23166684 10.87900285 -8.125 9.6875 C-7.56941406 9.09259766 -7.01382813 8.49769531 -6.44140625 7.88476562 C-5.90644531 7.30791016 -5.37148437 6.73105469 -4.8203125 6.13671875 C-4.32805176 5.60780029 -3.83579102 5.07888184 -3.32861328 4.53393555 C-1.79418204 2.82718765 -1.79418204 2.82718765 0 0 Z " fill="#2C8BD6" transform="translate(162,85)"/>
<path d="M0 0 C2.11434065 3.17151097 3.01955937 5.86432861 4.125 9.5 C4.47820313 10.6446875 4.83140625 11.789375 5.1953125 12.96875 C6 16 6 16 6 19 C5.34 19 4.68 19 4 19 C1.30292366 12.44995746 -0.53699151 7.11513755 0 0 Z " fill="#254771" transform="translate(561,108)"/>
<path d="M0 0 C0.33 0 0.66 0 1 0 C0.67 6.27 0.34 12.54 0 19 C-0.66 19 -1.32 19 -2 19 C-2.05411124 16.58303128 -2.09372278 14.16728213 -2.125 11.75 C-2.14175781 11.06808594 -2.15851563 10.38617188 -2.17578125 9.68359375 C-2.21213482 5.9391765 -2.07944349 3.17647273 0 0 Z " fill="#2B4972" transform="translate(1199,108)"/>
<path d="M0 0 C0.66 0 1.32 0 2 0 C5.77089394 4.50106704 8.69306887 9.01484303 9 15 C8.34 15 7.68 15 7 15 C6.01836578 13.06374902 5.03977546 11.12595461 4.0625 9.1875 C3.51722656 8.10855469 2.97195313 7.02960938 2.41015625 5.91796875 C1 3 1 3 0 0 Z " fill="#23456F" transform="translate(444,94)"/>
<path d="M0 0 C2.97 0.33 5.94 0.66 9 1 C9 1.33 9 1.66 9 2 C6.69 2 4.38 2 2 2 C2.309375 3.1446875 2.309375 3.1446875 2.625 4.3125 C3 7 3 7 1 10 C0.67 6.7 0.34 3.4 0 0 Z " fill="#274872" transform="translate(1195,186)"/>
<path d="M0 0 C0.99 0.33 1.98 0.66 3 1 C-0.3 3.64 -3.6 6.28 -7 9 C-7.66 8.67 -8.32 8.34 -9 8 C-2.92207792 1.75324675 -2.92207792 1.75324675 0 0 Z " fill="#133A68" transform="translate(61,132)"/>
<path d="M0 0 C4.2742558 1.5830577 6.26531794 4.50568404 9 8 C6 8 6 8 4.39453125 6.50390625 C3.61142578 5.54291016 3.61142578 5.54291016 2.8125 4.5625 C2.28269531 3.92441406 1.75289062 3.28632812 1.20703125 2.62890625 C0 1 0 1 0 0 Z " fill="#234C7A" transform="translate(136,30)"/>
<path d="M0 0 C0.66 0.33 1.32 0.66 2 1 C0.68 1.33 -0.64 1.66 -2 2 C-2 2.66 -2 3.32 -2 4 C-4.70879335 5.35439668 -7.00933268 5.06501451 -10 5 C-6.76527494 2.84351662 -3.62848922 1.38542316 0 0 Z " fill="#375B86" transform="translate(171,13)"/>
<path d="M0 0 C0.66 0 1.32 0 2 0 C3.2890625 1.75 3.2890625 1.75 4.625 4 C5.07101562 4.7425 5.51703125 5.485 5.9765625 6.25 C6.31429687 6.8275 6.65203125 7.405 7 8 C6.01 8.495 6.01 8.495 5 9 C4.16094435 7.87926138 3.32892169 6.75325453 2.5 5.625 C2.0359375 4.99851563 1.571875 4.37203125 1.09375 3.7265625 C0 2 0 2 0 0 Z " fill="#113763" transform="translate(979,208)"/>
<path d="M0 0 C3.36591866 1.44253657 5.51047079 3.33264727 8 6 C5.21788056 5.62403791 3.4120716 5.32681541 1.1875 3.5625 C0 2 0 2 0 0 Z " fill="#294A74" transform="translate(1225,127)"/>
<path d="M0 0 C0.66 0.33 1.32 0.66 2 1 C-0.31 3.31 -2.62 5.62 -5 8 C-5.66 7.34 -6.32 6.68 -7 6 C-4.69 4.02 -2.38 2.04 0 0 Z " fill="#0C3364" transform="translate(121,105)"/>
</svg>
